<svg id="Layer_1" data-name="Layer 1" xmlns="http://www.w3.org/2000/svg" viewBox="0 0 50 50"><defs><style>.cls-1{fill:#809ca9;}</style></defs><title>Artboard 1</title><path class="cls-1" d="M42.33,17.25v20.5s0,.07,0,.11a2.2,2.2,0,0,1-2.35,1.75H9.42a2.19,2.19,0,0,1-2.34-2.34V17.76A2.22,2.22,0,0,1,9.44,15.4H17c.05-.16.09-.31.14-.45.25-.76.46-1.54.77-2.28A2.49,2.49,0,0,1,20.43,11c.87,0,1.73,0,2.59,0H29.1a2.36,2.36,0,0,1,2,1A5.3,5.3,0,0,1,32,13.77c.17.54.31,1.08.46,1.63h7.65a2,2,0,0,1,1.74.82A7.64,7.64,0,0,1,42.33,17.25Zm-17.63,20a9.78,9.78,0,1,0-9.77-9.77A9.82,9.82,0,0,0,24.7,37.29Zm11-17.49c0,.65,0,1.28,0,1.9,0,.25,0,.33.31.32h3.85l.26,0V19.8Z"/><path class="cls-1" d="M24.7,34.66a7.16,7.16,0,1,1,7.16-7.12A7.15,7.15,0,0,1,24.7,34.66Z"/></svg>