<svg id="Layer_1" data-name="Layer 1" xmlns="http://www.w3.org/2000/svg" viewBox="0 0 50 50"><defs><style>.cls-1{fill:#809ca9;}</style></defs><title>Artboard 2</title><path class="cls-1" d="M24.31,8.83H41a2.55,2.55,0,0,1,2.46,1.46,2.62,2.62,0,0,1,.29,1.16q0,11.33,0,22.65A2.63,2.63,0,0,1,41,36.69c-1,0-2,0-3,0l-27.31,0c-1,0-2.07,0-3.1,0A2.62,2.62,0,0,1,5.2,35.26,2.58,2.58,0,0,1,4.9,34c0-4.82,0-9.64,0-14.47,0-2.66,0-5.32,0-8a2.57,2.57,0,0,1,2-2.57,3.4,3.4,0,0,1,.9-.09Zm0,22.34H40.74a1.49,1.49,0,0,0,1.4-1.4c0-.5,0-1,0-1.49V12.19a1.59,1.59,0,0,0-1.72-1.78H8.18a2.25,2.25,0,0,0-.64.08,1.56,1.56,0,0,0-1.08,1.68V29.42a2.78,2.78,0,0,0,0,.58,1.55,1.55,0,0,0,1.62,1.17Zm0,1.74A1.09,1.09,0,1,0,25.4,34,1.09,1.09,0,0,0,24.31,32.91Z"/><path class="cls-1" d="M15.78,41.1c.62,0,1.23-.06,1.83-.12A8.38,8.38,0,0,0,19,40.77a2.13,2.13,0,0,0,1.61-1.88c.08-.42.11-.86.15-1.29,0-.17.09-.23.27-.23q3.24,0,6.48,0c.22,0,.26.08.28.28a10.85,10.85,0,0,0,.22,1.5A2.14,2.14,0,0,0,30,40.87c.87.1,1.75.16,2.63.21.21,0,.28.08.27.28s0,.55,0,.82-.06.29-.26.27a1,1,0,0,0-.17,0H16.16c-.42,0-.42,0-.41-.42v-.85Z"/></svg>