<svg id="Layer_1" data-name="Layer 1" xmlns="http://www.w3.org/2000/svg" viewBox="0 0 50 50"><defs><style>.cls-1{fill:#809ca9;}</style></defs><title>Artboard 5</title><path class="cls-1" d="M13,11c.82.05,1.64.1,2.45.2a30.55,30.55,0,0,1,8.82,3.32c0,7,0,14,0,21A34.79,34.79,0,0,0,13,32.21C13,25.15,13,18.09,13,11Z"/><path class="cls-1" d="M24.85,14.57a31.65,31.65,0,0,1,8.77-3.31c.89-.11,1.79-.17,2.68-.22,0,7.05,0,14.1,0,21.16A33.33,33.33,0,0,0,25,35.56C24.67,28.57,25,21.56,24.85,14.57Z"/><path class="cls-1" d="M11.05,13.12c.3.14.9.42,1.21.55-.14,6.39,0,12.78-.06,19.17,4.21.52,8.5,1.49,12.08,3.86a67.75,67.75,0,0,0-7.3-2c-1.93-.39-3.9-.25-5.86-.45L11,34C11.1,27.05,11,20.08,11.05,13.12Z"/><path class="cls-1" d="M36.87,13.36l1.23-.18c0,.72,0,1.44,0,2.17,0,6.34,0,12.67,0,19a34.2,34.2,0,0,0-6.39.48c-2.36.37-4.58,1.32-6.89,1.91,3.58-2.44,7.89-3.41,12.13-3.93C36.88,26.34,37,19.85,36.87,13.36Z"/><path class="cls-1" d="M9.28,37.43c0-7.3-.1-14.61,0-21.92l1.15.27c.11,6.39.07,12.79,0,19.18l.4,0c2.49.29,5,.08,7.48.75,2.15.4,4.11,1.41,6.21,2,2-.49,3.79-1.5,5.81-1.9,2.76-.77,5.64-.66,8.46-.8,0-5.14,0-10.28,0-15.43A22.28,22.28,0,0,1,39,15.8l.56.09c.07.15.22.44.28.58.11,6.91,0,13.83.06,20.74v.23c-2.34,0-4.66-.56-7-.36A32.55,32.55,0,0,0,27,38a8,8,0,0,1-4.7,0,34.11,34.11,0,0,0-6.13-.92C13.89,36.89,11.59,37.4,9.28,37.43Z"/></svg>