<svg id="Layer_1" data-name="Layer 1" xmlns="http://www.w3.org/2000/svg" viewBox="0 0 50 50"><defs><style>.cls-1{fill:#809ca9;}</style></defs><title>Artboard 11</title><path class="cls-1" d="M17.7,6.91a10.52,10.52,0,0,1,1.68,0c.85,1,1.48,2.15,2.29,3.18.88,1.26,2.12,2.49,2,4.15a8.08,8.08,0,0,1-1.16,4.53c.85,1.05,1.69,2.12,2.54,3.19,2.66-3.44,5-7.08,7.53-10.61,1-1.34,1.82-2.89,3.3-3.78,1.38,1.31,1.08,3.31.89,5A17.49,17.49,0,0,1,27,25c-.89.39-1.14,1.41-1.6,2.17-2.12,4.36-4.62,8.54-6.74,12.92-.42.75-.75,1.72-1.63,2.06a2.54,2.54,0,0,1-3.55-1.3c-.66-1.11.19-2.28.77-3.2,3.07-4.32,6.13-8.65,9.09-13-.26-1.78-1.77-3.11-2.56-4.69-2.11.25-4.71.44-6.15-1.44s-2.85-3.87-4.09-5.91c.47-.62,1.29-1.51,2.09-.86,1.5,1.63,2.44,3.7,3.91,5.36.45.75,1.31.12,1.81-.19-1.08-1.94-2.56-3.62-3.72-5.51a3.74,3.74,0,0,1-.36-1.81L15.58,9c1.82,1.81,3,4.09,4.55,6.15.55-.16,1.24-.19,1.38-.86-1-1.91-2.44-3.57-3.59-5.39C17.51,8.31,17.72,7.57,17.7,6.91Z"/><path class="cls-1" d="M27.31,26.1l1-.1c2.71,3.56,5.58,7,8.29,10.52,1,1.34,2.66,2.57,2.42,4.41-.44,2-3.35,2.8-4.54,1.09-3-4.41-5.52-9.08-8.42-13.53C26.46,27.69,26.88,26.9,27.31,26.1Z"/></svg>