<svg id="Layer_1" data-name="Layer 1" xmlns="http://www.w3.org/2000/svg" viewBox="0 0 50 50"><defs><style>.cls-1{fill:#809ca9;}</style></defs><title>Artboard 10</title><path class="cls-1" d="M12.24,16.19A14,14,0,0,1,23.77,8.55c8.5-1,16.84,4.75,20,12.5a13.32,13.32,0,0,1,.89,7.6c-.2,1-1.12,1.51-1.94,2-1.69-.77-2.08-2.74-3.43-3.86-.64-.54-1.47.25-1.48.94-.46,2.5,1,4.71,1.65,7A4.24,4.24,0,0,1,37.26,40c-5.84,2.92-12.87,1.1-18-2.49a18.37,18.37,0,0,1-8.07-11.2A16,16,0,0,1,12.24,16.19ZM20.8,13a3,3,0,0,0-1.59,3.45c.52,2.37,4.21,2.84,5.3.67a2.87,2.87,0,0,0-.72-3.73A3.45,3.45,0,0,0,20.8,13Zm9.24.19a3,3,0,0,0-1.78,3.39,3.08,3.08,0,0,0,2.8,2.18,2.89,2.89,0,1,0-1-5.57Zm-14,7.52a2.74,2.74,0,0,0-1.62,1.51,2.86,2.86,0,0,0,2.61,4.06c2.3.24,3.83-2.87,2.33-4.58C18.68,20.59,17.24,20.54,16.06,20.75Zm4.26,7.37a2.88,2.88,0,0,0-1.43,4.23,2.92,2.92,0,0,0,4.88,0,2.83,2.83,0,0,0-.46-3.66C22.57,27.88,21.32,28,20.32,28.12Z"/></svg>