<svg id="Layer_1" data-name="Layer 1" xmlns="http://www.w3.org/2000/svg" viewBox="0 0 50 50"><defs><style>.cls-1{fill:#809ca9;}</style></defs><title>Artboard 6</title><path class="cls-1" d="M10.79,10.89c1-1.27,2.8-1,4-.35a33.25,33.25,0,0,1,7.3,5.63c3.49.24,7-.56,10.46-.72,2.73-.09,5.46-.58,8.21-.44A16,16,0,0,1,44,17.27c.47.32.33.93.4,1.42-5.32,1.46-10.67,2.79-16,4.18,1.81,2.26,3.72,4.44,5.55,6.67.55.58,1,1.33,1.71,1.69,1.73.22,3.48.13,5.21.34,1.15,0,1.79,1.14,2.51,1.89-1.44,1.86-3.88,2.45-5.56,4-1.45,1.78-2.13,4.16-4,5.57a10.47,10.47,0,0,1-1.62-1.71c-.43-2.18.12-4.47-.38-6.64-2.75-2.38-5.72-4.49-8.5-6.82C21.64,33,20.08,38.19,18.5,43.34l-1.36,0c-.62-1.07-1.56-2-1.84-3.24.15-6.21,1.11-12.36,1.29-18.56a31,31,0,0,1-5.45-6.69A4.19,4.19,0,0,1,10.79,10.89Z"/></svg>