<svg id="Layer_1" data-name="Layer 1" xmlns="http://www.w3.org/2000/svg" viewBox="0 0 50 50"><defs><style>.cls-1{fill:#809ca9;}</style></defs><title>Artboard 3</title><path class="cls-1" d="M20.23,7.67a11.36,11.36,0,0,1,3.19,0c.19.93.39,1.86.56,2.81,1.59.58,3.13,1.31,4.68,2A9.09,9.09,0,0,1,28,16.35a16.49,16.49,0,0,0-2,8.7,15.57,15.57,0,0,1,1.71,5.25c.2,2.42,0,4.87-.06,7.3a15.43,15.43,0,0,1-5,.92c0,1.28,0,2.56,0,3.84l-1.63,0c0-1.27,0-2.55,0-3.82a14,14,0,0,1-5.05-1c0-3.15-.54-6.38.41-9.44.3-1.07.85-2,1.25-3.06a16.17,16.17,0,0,0-2-8.75A11,11,0,0,1,15,12.61a30.41,30.41,0,0,1,4.73-2.13C19.87,9.54,20.05,8.6,20.23,7.67Z"/></svg>