<svg id="Layer_1" data-name="Layer 1" xmlns="http://www.w3.org/2000/svg" viewBox="0 0 50 50"><defs><style>.cls-1{fill:#809ca9;}</style></defs><title>Artboard 9</title><path class="cls-1" d="M17.43,14.24A63.23,63.23,0,0,1,39.5,7.65c0,9.6,0,19.2,0,28.8A5.11,5.11,0,0,1,33.94,41a3.65,3.65,0,0,1-3.61-2.45,4.26,4.26,0,0,1,1.11-4.14,6.53,6.53,0,0,1,5.85-1.73c0-5.34,0-10.68,0-16a51.13,51.13,0,0,0-17.43,3.28c0,6.64.06,13.28,0,19.92a5.47,5.47,0,0,1-5.48,4.35A3.67,3.67,0,0,1,10.56,41,4.9,4.9,0,0,1,13,36.47c1.35-.95,3-.71,4.5-.61C17.41,28.65,17.48,21.44,17.43,14.24Zm2.42,1.62c0,.76,0,1.5,0,2.26a89,89,0,0,1,13.3-3.61c1.37-.27,2.76-.37,4.12-.72,0-1,0-2,0-3A58.05,58.05,0,0,0,19.85,15.86Z"/></svg>