<svg id="Layer_1" data-name="Layer 1" xmlns="http://www.w3.org/2000/svg" viewBox="0 0 50 50"><defs><style>.cls-1{fill:#809ca9;}</style></defs><title>Artboard 4</title><path class="cls-1" d="M6.62,14.3c10.71-1.93,21.4-4,32.1-5.94a68,68,0,0,1,1.34,7.78c-8.75,1.71-17.55,3.13-26.3,4.83a12.36,12.36,0,0,0-3.59.94,23.5,23.5,0,0,0,3.84.15H40.7c-.05,6.51.13,13-.09,19.51l0-.38c-.5-6.24,0-12.51-.24-18.76-6.83-.16-13.65,0-20.47-.05-3.72.06-7.45-.14-11.17,0-.28,5.27.05,10.55-.08,15.83a17.2,17.2,0,0,1-.4,2.93l-.08.34C7.84,35,8.14,28.39,8,21.83,7.62,19.31,7,16.84,6.62,14.3Zm24-2.27a27.62,27.62,0,0,0-3,4.24,14.33,14.33,0,0,0,3.25-.6A24.7,24.7,0,0,0,34,11.46,13.82,13.82,0,0,0,30.64,12ZM35,14.83c.91-.08,1.81-.18,2.71-.28-.06-.9-.15-1.81-.28-2.7A8.22,8.22,0,0,0,35,14.83ZM23.18,13.46a27.14,27.14,0,0,0-2.89,4.06c1.15-.21,2.55.12,3.51-.66a41.5,41.5,0,0,0,2.76-4.15A20.17,20.17,0,0,0,23.18,13.46Zm-7.34,1.27a48.27,48.27,0,0,0-3,4.26,22.92,22.92,0,0,0,3.28-.55,39.75,39.75,0,0,0,3.16-4.31A16.36,16.36,0,0,0,15.84,14.73ZM9.06,15.91a21.36,21.36,0,0,0,.58,2.95,38.13,38.13,0,0,0,2.19-3.47C10.91,15.55,10,15.75,9.06,15.91Z"/><path class="cls-1" d="M8.69,22.41c3.72-.18,7.45,0,11.17,0,6.82.06,13.64-.11,20.47.05.27,6.25-.26,12.52.24,18.76-10.79,0-21.58,0-32.36,0a17.2,17.2,0,0,0,.4-2.93C8.74,33,8.41,27.68,8.69,22.41Zm2.09,2.34c0,2.62,0,5.24,0,7.85H38V24.75Q24.38,24.75,10.78,24.75Z"/></svg>