<svg id="Layer_1" data-name="Layer 1" xmlns="http://www.w3.org/2000/svg" viewBox="0 0 50 50"><defs><style>.cls-1{fill:#809ca9;fill-rule:evenodd;}</style></defs><title>Artboard 8</title><path class="cls-1" d="M16.17,40.81a14.61,14.61,0,0,1,.53-1.66q5.18-11.05,10.39-22.1l3.82-8.11a3.65,3.65,0,0,1,1.41-1.67,1.73,1.73,0,0,1,2.76,1.4,3.76,3.76,0,0,1-.38,2Q28.42,24,22.15,37.29C21.57,38.54,21,39.8,20.39,41A3.47,3.47,0,0,1,19,42.61a1.71,1.71,0,0,1-2.71-1.36c0-.14,0-.28,0-.41Z"/><path class="cls-1" d="M22,24.19l-1.4-3q-2.47-5.28-5-10.56a3.49,3.49,0,0,1-.33-2.39,1.66,1.66,0,0,1,2.45-1.16A3.49,3.49,0,0,1,19.38,8.9c1,2.17,2,4.35,3.07,6.52.55,1.19,1.12,2.37,1.67,3.56a.68.68,0,0,1,0,.52C23.46,21,22.74,22.57,22,24.19Z"/><path class="cls-1" d="M28.32,27.91c.55,1.16,1.07,2.24,1.58,3.33l3.75,8a3.37,3.37,0,0,1,.28,2.43,1.62,1.62,0,0,1-2.32,1.11,3.16,3.16,0,0,1-1.69-1.7c-1.26-2.64-2.49-5.29-3.75-7.93a.68.68,0,0,1,0-.65C26.88,31,27.58,29.49,28.32,27.91Z"/><path class="cls-1" d="M37.83,38.66a3.66,3.66,0,0,1,.75,0c.15,0,.27.22.39.33-.13.1-.25.26-.39.27a9.23,9.23,0,0,1-1.06,0v1.55c0,.23,0,.51-.32.51s-.33-.27-.33-.51V39.28a9.25,9.25,0,0,1-1.06,0c-.14,0-.25-.17-.39-.27.14-.11.24-.28.39-.33a3.58,3.58,0,0,1,.74,0c0-.18,0-.32,0-.46V15.76a22.68,22.68,0,0,1-.19-4.8.8.8,0,0,1,1.09-.83.77.77,0,0,1,.55.75,26.81,26.81,0,0,1,0,4,33.06,33.06,0,0,0-.13,4.77c0,6.13,0,12.28,0,18.41Z"/><path class="cls-1" d="M13.73,38.66a3.77,3.77,0,0,1,.76,0c.14,0,.25.22.39.33-.14.1-.26.26-.39.27a9.43,9.43,0,0,1-1.07,0v1.55c0,.23,0,.51-.32.51s-.32-.27-.32-.51V39.28a9.4,9.4,0,0,1-1.07,0c-.13,0-.26-.17-.38-.27.12-.11.23-.28.38-.33a3.58,3.58,0,0,1,.74,0c0-.18,0-.32,0-.46q0-11.22,0-22.44a22,22,0,0,1-.2-4.8.8.8,0,0,1,1.1-.83.78.78,0,0,1,.54.75,26.81,26.81,0,0,1,0,4,33.06,33.06,0,0,0-.14,4.77c0,6.13,0,12.28,0,18.41Z"/></svg>