<svg id="Layer_1" data-name="Layer 1" xmlns="http://www.w3.org/2000/svg" viewBox="0 0 50 50"><defs><style>.cls-1{fill:#809ca9;}</style></defs><title>Artboard 7</title><path class="cls-1" d="M23.88,8.83c3.18-1.58,7.26-1.94,10.39-.05a8.07,8.07,0,0,1,3.83,6.89,12.06,12.06,0,0,1-4,9.72,17.22,17.22,0,0,1-9.71,3.79c-2.41.08-5.21.14-7,2.07-2,2-4,4-6.06,6-1.1-.9-2.61-1.71-3-3.17,2-2.69,4.88-4.69,7-7.35,1.3-2.65.82-5.7,1.54-8.5C17.87,14.36,20.16,10.53,23.88,8.83Zm3.23.43a10.42,10.42,0,0,0-3,1.11c-3.16,1.55-4.91,5-5.73,8.26-.1,2.43-.74,5.41,1.24,7.3,1.63,1.77,4.28,1.76,6.49,1.53,3.77-.64,7.6-2.66,9.35-6.2,1.49-2.9,1.84-6.66-.06-9.46C33.6,9.22,30,8.55,27.11,9.26ZM17.33,25.64c-.22.72-.45,1.44-.68,2.16.35.37.72.73,1.08,1.11.73-.24,1.46-.49,2.2-.71A34.89,34.89,0,0,1,17.33,25.64Zm-2.17,3.67c-1.67,1.54-3.31,3.1-4.82,4.8.16.54.65.84,1,1.2,1.72-1.77,3.4-3.6,5.28-5.2C16.33,29.65,15.8,28.72,15.16,29.31Z"/><path class="cls-1" d="M20.88,31.36a5.24,5.24,0,0,1,6.55,5.16,5.54,5.54,0,0,1-5.09,5.34,5.51,5.51,0,0,1-5.57-5.32A5.74,5.74,0,0,1,20.88,31.36Zm1.82,1.39A3.9,3.9,0,0,0,25.86,36,4,4,0,0,0,22.7,32.75Zm-4.22,2.6a7.48,7.48,0,0,1,3,1.62,8.39,8.39,0,0,1,1.7,3.22,5.28,5.28,0,0,0,2.68-2.57,8.77,8.77,0,0,1-3.26-1.77,10.11,10.11,0,0,1-1.71-3.1A6.63,6.63,0,0,0,18.48,35.35Zm0,1.62a4.06,4.06,0,0,0,3.23,3.28A4.2,4.2,0,0,0,18.44,37Z"/></svg>