<svg xmlns="http://www.w3.org/2000/svg" viewBox="0 0 533.33 433.33"><title>Asset 1</title><g id="Layer_2" data-name="Layer 2"><g id="Capa_1" data-name="Capa 1"><path d="M158.33,250A108.34,108.34,0,1,0,266.67,141.67,108.33,108.33,0,0,0,158.33,250ZM500,66.67H383.33C375,33.33,366.67,0,333.33,0H200c-33.33,0-41.67,33.33-50,66.67H33.33A33.43,33.43,0,0,0,0,100V400a33.43,33.43,0,0,0,33.33,33.33H500A33.43,33.43,0,0,0,533.33,400V100A33.43,33.43,0,0,0,500,66.67ZM266.67,397.92A147.92,147.92,0,1,1,414.58,250,147.92,147.92,0,0,1,266.67,397.92ZM500,166.67H433.33V133.33H500Z"/></g></g></svg>